<svg xmlns="http://www.w3.org/2000/svg" viewBox="0 0 19.34 18.63"><defs><style>.a{fill:#fff;}</style></defs><title>burger</title><path class="a" d="M25.13,41.13a2.62,2.62,0,0,1-2.63-2.62.73.73,0,0,1,.73-.73H40.78a.72.72,0,0,1,.73.73,2.62,2.62,0,0,1-2.62,2.62ZM23.56,36a.72.72,0,0,1-.72-.73V33.72a.73.73,0,0,1,.72-.73h1.76l3.31,2.44a.63.63,0,0,0,.88,0L32.81,33h8.3a.73.73,0,0,1,.73.73V35.3a.73.73,0,0,1-.73.73Zm.33-4.26a1,1,0,0,1-1.05-1.05V30a7.47,7.47,0,0,1,7.45-7.45h4.1A7.47,7.47,0,0,1,41.84,30v.77a1,1,0,0,1-1.05,1.05Zm12.33-4.13v.82a.42.42,0,0,0,.43.42h.81a.42.42,0,0,0,.43-.42v-.82a.43.43,0,0,0-.43-.43h-.81a.43.43,0,0,0-.43.43Zm-9.43,0v.82a.42.42,0,0,0,.43.42H28a.42.42,0,0,0,.42-.42v-.82a.42.42,0,0,0-.42-.43h-.82a.43.43,0,0,0-.43.43Zm4.72-2.13v.82a.43.43,0,0,0,.42.43h.82a.43.43,0,0,0,.43-.43v-.82a.43.43,0,0,0-.43-.43h-.82a.43.43,0,0,0-.42.43Z" transform="translate(-22.5 -22.5)"/></svg>