<svg xmlns="http://www.w3.org/2000/svg" viewBox="0 0 23.24 16.06"><defs><style>.a{fill:#fff;}</style></defs><title>oxygen</title><path class="a" d="M43.18,33.18a1.18,1.18,0,0,0,.29-.3.54.54,0,0,0,.12-.34.58.58,0,0,0-.13-.37.47.47,0,0,0-.41-.15.61.61,0,0,0-.5.23,1.08,1.08,0,0,0-.22.65L40,32.61a3.25,3.25,0,0,1,.38-1.24,3.12,3.12,0,0,1,.76-.86,3.23,3.23,0,0,1,1-.5,4,4,0,0,1,1.15-.15,4.32,4.32,0,0,1,1.08.14,2.81,2.81,0,0,1,.95.43,2.12,2.12,0,0,1,.93,1.85,2.23,2.23,0,0,1-.45,1.43,3,3,0,0,1-.46.49c-.17.14-.35.28-.54.41l-1.09.77h2.55v2.08l-6,0V35.51Z" transform="translate(-23 -23)"/><path class="a" d="M31,25.41A5.62,5.62,0,1,1,25.41,31h0A5.62,5.62,0,0,1,31,25.41M31,23a8,8,0,1,0,8,8h0a8,8,0,0,0-8-8Z" transform="translate(-23 -23)"/><path class="a" d="M35.05,31.63a.6.6,0,0,1-.6-.6A3.42,3.42,0,0,0,31,27.61h0a.6.6,0,1,1,0-1.2A4.63,4.63,0,0,1,35.65,31a.6.6,0,0,1-.6.6Z" transform="translate(-23 -23)"/></svg>