<?xml version="1.0" encoding="utf-8"?>
<!-- Generator: Adobe Illustrator 24.0.3, SVG Export Plug-In . SVG Version: 6.00 Build 0)  -->
<svg version="1.1" id="Layer_1" xmlns="http://www.w3.org/2000/svg" xmlns:xlink="http://www.w3.org/1999/xlink" x="0px" y="0px"
	 viewBox="0 0 22.224 21.389" style="enable-background:new 0 0 22.224 21.389;" xml:space="preserve">
<style type="text/css">
	.st0{fill:#FFFFFF;}
</style>
<path id="Path_102" class="st0" d="M22.215,4.097c-0.221,0.013-0.44,0.019-0.658,0.018C15.887,4.115,11.117,0,11.117,0h-0.01
	c0,0-4.771,4.115-10.44,4.115c-0.218,0-0.437-0.006-0.658-0.018c0,0-0.742,16.137,11.1,17.292h0.01
	C22.957,20.234,22.215,4.097,22.215,4.097z M18.831,11.605c-1.4,4.517-3.925,6.937-7.719,7.389h-0.011V2.968l0.011-0.007
	c2.588,1.791,5.553,2.963,8.666,3.427C19.658,8.157,19.34,9.907,18.831,11.605z"/>
</svg>
