<svg xmlns="http://www.w3.org/2000/svg" viewBox="0 0 23.09 18.79"><defs><style>.a{fill:#fff;}</style></defs><title>stress</title><path class="a" d="M44.62,27.83a5.33,5.33,0,0,1-2.47,2,.64.64,0,0,1-.82-.33.62.62,0,0,1,.34-.81h0a4.11,4.11,0,0,0,2-1.67L43.59,27a3.12,3.12,0,0,0-3.11-2.74h-.2l-.82.07A3.1,3.1,0,0,0,37,23.05h0a3,3,0,0,0-1.73.53A3.32,3.32,0,0,0,31,23a6.49,6.49,0,0,1,1.85,2.31.62.62,0,1,1-1.09.58.08.08,0,0,1,0,0,5.39,5.39,0,0,0-1.86-2.13l-.28-.11a3.23,3.23,0,0,0-3.94,2.33l0,.1a3.13,3.13,0,0,0-2.48,3.67h0a2.54,2.54,0,0,0,.13.45,4.54,4.54,0,0,1,2.84-.3.62.62,0,0,1-.23,1.22,3.14,3.14,0,0,0-2.46.42,2.68,2.68,0,0,0-.5.45,3,3,0,0,0,.92,4.12,2.91,2.91,0,0,0,1.42.46h3.6a.62.62,0,1,1,0,1.24H26.83a2.17,2.17,0,0,0,2.11,1.64h1.15v1.89h1.74L34.68,37a3.52,3.52,0,0,0,4.71-2.93,2.78,2.78,0,0,0-1.23-1.67.62.62,0,0,1,.65-1.06,4.09,4.09,0,0,1,1.86,2.72h1.4a3.51,3.51,0,0,0,3.51-3.5A4,4,0,0,0,44.62,27.83ZM34.16,31.71a2.65,2.65,0,0,0,.1,1.82.62.62,0,0,1-1.15.47,4,4,0,0,1-.27-2l-.36,0H32.4a3.36,3.36,0,0,0-1.78,1.54.62.62,0,1,1-1.14-.48,3.67,3.67,0,0,1,1.18-1.47,4.53,4.53,0,0,1-2.15-2.43l0,0a.63.63,0,0,1,.28-.83.61.61,0,0,1,.79.21.76.76,0,0,1,.09.18,3,3,0,0,0,2.59,2.08.49.49,0,0,1,.24,0l.35,0c2.37-.23,2.64-2.89,2.65-3a.62.62,0,0,1,1.24.1h0a4.68,4.68,0,0,1-2.56,3.82Z" transform="translate(-22.49 -22.5)"/></svg>